HIERARCHY
ROOT Hips
{
	OFFSET -3.958830 18.904000 13.208200
	CHANNELS 6 Xposition Yposition Zposition Zrotation Yrotation Xrotation 
	JOINT LHipJoint
	{
		OFFSET 0.000000 0.000000 0.000000
		CHANNELS 3 Zrotation Yrotation Xrotation
		JOINT LeftUpLeg
		{
			OFFSET 1.800000 -1.400000 0.085000
			CHANNELS 3 Zrotation Yrotation Xrotation
			JOINT LeftLeg
			{
				OFFSET 2.215000 -6.000000 0.000000
				CHANNELS 3 Zrotation Yrotation Xrotation
				JOINT LeftFoot
				{
					OFFSET 2.500000 -6.900000 0.000000
					CHANNELS 3 Zrotation Yrotation Xrotation
					JOINT LeftToeBase
					{
						OFFSET 0.200000 -0.500000 1.950000
						CHANNELS 3 Zrotation Yrotation Xrotation
						End Site
						{
							OFFSET 0.000000 0.000000 0.000000
						}
					}
				}
			}
		}
	}
	JOINT RHipJoint
	{
		OFFSET 0.000000 0.000000 0.000000
		CHANNELS 3 Zrotation Yrotation Xrotation
		JOINT RightUpLeg
		{
			OFFSET -1.800000 -1.400000 0.085000
			CHANNELS 3 Zrotation Yrotation Xrotation
			JOINT RightLeg
			{
				OFFSET -2.215000 -6.000000 0.000000
				CHANNELS 3 Zrotation Yrotation Xrotation
				JOINT RightFoot
				{
					OFFSET -2.500000 -6.900000 0.000000
					CHANNELS 3 Zrotation Yrotation Xrotation
					JOINT RightToeBase
					{
						OFFSET -0.200000 -0.500000 1.950000
						CHANNELS 3 Zrotation Yrotation Xrotation
						End Site
						{
							OFFSET 0.000000 0.000000 0.000000
						}
					}
				}
			}
		}
	}
	JOINT LowerBack
	{
		OFFSET 0.000000 0.000000 0.000000
		CHANNELS 3 Zrotation Yrotation Xrotation
		JOINT Spine
		{
			OFFSET -0.087000 1.940000 -0.288900
			CHANNELS 3 Zrotation Yrotation Xrotation
			JOINT Spine1
			{
				OFFSET 0.000000 1.950000 0.060000
				CHANNELS 3 Zrotation Yrotation Xrotation
				JOINT Neck
				{
					OFFSET 0.000000 0.000000 0.000000
					CHANNELS 3 Zrotation Yrotation Xrotation
					JOINT Neck1
					{
						OFFSET 0.000000 1.600000 0.340000
						CHANNELS 3 Zrotation Yrotation Xrotation
						JOINT Head
						{
							OFFSET 0.000000 1.667000 -0.240000
							CHANNELS 3 Zrotation Yrotation Xrotation
							End Site
							{
								OFFSET 0.000000 0.000000 0.000000
							}
						}
					}
				}
				JOINT LeftShoulder
				{
					OFFSET 0.000000 0.000000 0.000000
					CHANNELS 3 Zrotation Yrotation Xrotation
					JOINT LeftArm
					{
						OFFSET 2.700000 1.550000 -0.730000
						CHANNELS 3 Zrotation Yrotation Xrotation
						JOINT LeftForeArm
						{
							OFFSET 5.450000 0.000000 0.000000
							CHANNELS 3 Zrotation Yrotation Xrotation
							JOINT LeftHand
							{
								OFFSET 3.450000 0.000000 0.000000
								CHANNELS 3 Zrotation Yrotation Xrotation
								JOINT LeftHandIndex1
								{
									OFFSET 0.750000 0.000000 0.000000
									CHANNELS 3 Zrotation Yrotation Xrotation
									End Site
									{
										OFFSET 0.000000 0.000000 0.000000
									}
								}
							}
						}
					}
				}
				JOINT RightShoulder
				{
					OFFSET 0.000000 0.000000 0.000000
					CHANNELS 3 Zrotation Yrotation Xrotation
					JOINT RightArm
					{
						OFFSET -2.700000 1.550000 -0.730000
						CHANNELS 3 Zrotation Yrotation Xrotation
						JOINT RightForeArm
						{
							OFFSET -5.450000 0.000000 0.000000
							CHANNELS 3 Zrotation Yrotation Xrotation
							JOINT RightHand
							{
								OFFSET -3.450000 0.000000 0.000000
								CHANNELS 3 Zrotation Yrotation Xrotation
								JOINT RightHandIndex1
								{
									OFFSET -0.750000 0.000000 0.000000
									CHANNELS 3 Zrotation Yrotation Xrotation
									End Site
									{
										OFFSET 0.000000 0.000000 0.000000
									}
								}
							}
						}
					}
				}
			}
		}
	}
}
MOTION
Frames: 8
Frame Time: 0.016667
-0.512870 17.074290 -0.862590 -1.415617 -2.202605 -2.478111 -14.522360 12.197877 3.188782 19.827975 -1.680962 -16.563025 -14.663783 12.486382 26.861307 0.400243 6.836002 1.967198 0.277610 0.184080 0.279640 18.737275 -11.977544 2.612462 -19.622843 0.507379 -19.951500 11.903420 -12.180416 31.784395 -0.566994 -6.076008 1.996133 -0.035800 -0.056170 0.217120 -5.126013 2.026384 -7.708102 24.107870 0.343345 10.176662 -1.050258 0.926712 0.564190 2.603447 10.613899 -11.563115 24.333127 -21.786787 41.390453 -0.206630 -11.505800 0.623160 -15.624234 -5.072235 3.570008 -34.308790 1.711142 -8.549565 34.603503 -46.014982 -11.969572 -3.394358 3.083635 0.228770 -0.043710 0.200940 0.097730 9.471657 0.048340 6.000541 58.566369 0.745015 -8.219258 23.618572 35.956437 3.799279 2.485055 -1.585834 0.119570 -0.077060 -0.148210 0.021310 
-0.516640 17.072920 -0.861770 -1.384855 -2.280993 -2.538282 -14.518299 12.214712 3.185005 19.798224 -1.668740 -16.486142 -14.600883 12.481958 26.909570 0.409254 6.824339 1.971817 0.278920 0.189710 0.281190 18.737727 -11.985445 2.609849 -19.616075 0.503136 -19.955616 11.775798 -12.152169 31.884267 -0.569230 -6.065227 2.001104 -0.036860 -0.061650 0.210190 -5.130491 2.011750 -7.710243 24.242173 0.289082 10.232530 -1.014932 0.901933 0.562555 2.516203 10.535171 -11.618635 24.159671 -21.724936 41.694736 -0.015410 -11.570910 0.527610 -15.431309 -5.057677 3.632382 -34.612406 1.836024 -8.640472 34.671521 -45.930149 -11.973287 -3.382956 3.079868 0.230150 -0.052230 0.206910 0.099120 9.432480 0.090196 6.016523 58.580840 0.711652 -8.303165 23.591354 36.105133 3.812467 2.491242 -1.581159 0.122000 -0.073670 -0.153480 0.024290 
-0.523940 17.071710 -0.861520 -1.321197 -2.509891 -2.652171 -14.507775 12.249292 3.175214 19.726517 -1.625623 -16.259993 -14.506253 12.440223 26.854818 0.420194 6.784895 1.985837 0.282470 0.199470 0.284710 18.738984 -12.002574 2.611459 -19.574763 0.519896 -19.954288 11.584023 -12.081092 31.983745 -0.572570 -6.035001 2.013598 -0.038420 -0.073430 0.199030 -5.141978 1.990501 -7.715743 24.533583 0.185128 10.357463 -1.030313 0.871961 0.535917 2.375677 10.347849 -11.729326 23.791555 -21.566541 42.357307 0.345570 -11.682230 0.292280 -15.129041 -5.035525 3.749695 -35.218669 2.100179 -8.808481 35.192143 -45.699103 -12.105477 -3.362634 3.068994 0.236530 -0.068610 0.218880 0.100440 9.361523 0.231337 6.067453 58.587038 0.715788 -8.403138 23.587678 36.314981 3.846871 2.501151 -1.571695 0.126010 -0.068700 -0.162170 0.027650 
-0.531600 17.072090 -0.860780 -1.297882 -2.721799 -2.743237 -14.493113 12.291435 3.158461 19.638522 -1.588545 -16.018645 -14.309322 12.339890 26.768371 0.423424 6.724433 2.006009 0.290530 0.212330 0.288620 18.743624 -12.029647 2.606047 -19.424351 0.528120 -19.951695 11.261026 -11.965813 32.112268 -0.572770 -5.995933 2.031023 -0.037280 -0.085640 0.189790 -5.164268 1.972588 -7.709554 25.015833 0.032053 10.393152 -1.137762 0.795780 0.542258 2.278898 10.146407 -11.767096 23.245865 -21.324404 42.830726 0.674720 -11.816390 -0.035690 -14.870787 -4.976224 3.828308 -35.834168 2.261548 -8.924807 35.873463 -45.313228 -12.246543 -3.344426 3.064099 0.241500 -0.083740 0.227840 0.103000 9.248996 0.305106 6.093213 58.499328 0.750524 -8.450299 23.800103 36.571201 3.953311 2.508402 -1.570537 0.131440 -0.067600 -0.171850 0.030500 
-0.541980 17.076030 -0.859650 -1.275365 -2.962320 -2.760863 -14.475123 12.335169 3.125650 19.476694 -1.546479 -15.755647 -13.984337 12.160578 26.602204 0.417137 6.634796 2.039614 0.293010 0.219910 0.286010 18.752052 -12.066453 2.602085 -19.206835 0.546320 -20.000168 10.879543 -11.797788 32.172008 -0.566744 -5.942436 2.051247 -0.035500 -0.089300 0.182900 -5.196158 1.976405 -7.685969 25.486832 -0.106836 10.288514 -1.253539 0.693706 0.571963 2.203477 9.983222 -11.708645 22.703773 -21.025337 42.983963 0.977350 -11.922940 -0.333500 -14.663263 -4.839697 3.882317 -36.442691 2.408751 -9.010340 36.700401 -44.912337 -12.426707 -3.334764 3.059923 0.243080 -0.093130 0.232290 0.106540 9.164096 0.237649 6.011019 58.457938 0.939027 -8.360972 23.887195 36.538850 4.002359 2.516753 -1.568268 0.132890 -0.064500 -0.177330 0.035530 
-0.553340 17.085150 -0.859030 -1.265109 -3.175055 -2.703295 -14.454789 12.373837 3.085415 19.262516 -1.500231 -15.470214 -13.648556 11.906874 26.220926 0.402592 6.506374 2.090488 0.298330 0.230640 0.282790 18.763581 -12.109276 2.598483 -18.906683 0.567981 -20.060544 10.486563 -11.581688 32.108803 -0.554782 -5.872307 2.082613 -0.029970 -0.088930 0.174200 -5.236387 2.002045 -7.650066 25.964661 -0.235099 10.050685 -1.406567 0.571238 0.634795 2.161778 9.851012 -11.570256 22.137452 -20.636520 42.783056 1.198850 -11.946530 -0.631400 -14.458619 -4.651975 3.909780 -36.994861 2.518746 -9.055702 37.065950 -44.498585 -12.414185 -3.327972 3.062770 0.240540 -0.098030 0.231160 0.114150 9.024328 0.064074 5.859033 58.445858 1.259877 -8.133010 24.010215 36.252657 4.028508 2.523624 -1.570424 0.132380 -0.060210 -0.185630 0.040740 
-0.565330 17.098280 -0.856190 -1.288685 -3.367903 -2.507165 -14.432951 12.393712 3.042209 19.067888 -1.441246 -15.182951 -13.377586 11.604972 25.569180 0.383003 6.355125 2.154510 0.297140 0.234220 0.272990 18.779709 -12.154165 2.596503 -18.545478 0.595929 -20.136026 10.146253 -11.339346 31.872490 -0.535577 -5.790318 2.119087 -0.025430 -0.078270 0.169390 -5.286443 2.066381 -7.601939 26.441622 -0.291473 9.596030 -1.569462 0.466360 0.735528 2.156636 9.778037 -11.374901 21.616470 -20.220006 42.054795 1.257730 -11.915480 -0.788770 -14.214446 -4.409907 3.901110 -37.636797 2.481262 -9.035024 37.366905 -44.042918 -12.350366 -3.333157 3.068639 0.230770 -0.093290 0.222880 0.123240 8.766208 -0.231844 5.691501 58.548629 1.601719 -7.847592 24.203411 35.949813 4.068674 2.527802 -1.578615 0.129110 -0.055720 -0.190090 0.048130 
-0.579240 17.116550 -0.853910 -1.319590 -3.509639 -2.224124 -14.413293 12.403727 3.009972 18.908425 -1.385165 -14.911346 -13.225440 11.284195 24.686428 0.361274 6.196437 2.223250 0.291920 0.229930 0.261040 18.794076 -12.199015 2.590228 -18.087136 0.631241 -20.176539 9.763806 -11.027343 31.463111 -0.510075 -5.678596 2.166349 -0.025020 -0.061590 0.169640 -5.331772 2.141902 -7.555047 26.865636 -0.315050 9.099452 -1.751910 0.403077 0.791246 2.128851 9.740458 -11.176069 21.122666 -19.797265 40.967815 1.367650 -11.915910 -0.975080 -14.017129 -4.230597 3.900066 -38.203025 2.464412 -9.000485 37.402961 -43.573515 -12.186386 -3.345244 3.077498 0.220100 -0.084380 0.211350 0.131050 8.571121 -0.486462 5.542435 58.676885 1.852871 -7.609786 24.269042 35.567883 4.052723 2.529728 -1.585231 0.125360 -0.052030 -0.189660 0.055600 
